# xmcd CD database file
#
# Track frame offsets:
#	150
#	14440
#	27681
#	43689
#	57655
#	68341
#	83227
#	98884
#	112703
#	122735
#	134318
#	148050
#	160424
#	174623
#	190427
#	202907
#
# Disc length: 2914 seconds
#
# Revision: 0
# Processed by: cddbd v1.5.1PL0 Copyright (c) Steve Scherf et al.
# Submitted via: CDex 1.51
#
DISCID=e30b6010
DTITLE=Perry Como - Ultimate jazz and Blues
DYEAR=2004
DGENRE=Blues
TTITLE0=Till the end of time
TTITLE1=If I'm lucky
TTITLE2=Bali haí
TTITLE3=If
TTITLE4=I wanna go home ( with you)
TTITLE5=Sontana
TTITLE6=Some exchanted evening
TTITLE7=A garden in the rain
TTITLE8=With a song in my hart
TTITLE9=They say it's wonderful
TTITLE10=Far away places
TTITLE11=A bushel and a peck
TTITLE12=long ago and far away
TTITLE13=Prisoner of love
TTITLE14=Temptation
TTITLE15=Blue room
EXTD=YEAR: 2004
EXTT0=
EXTT1=
EXTT2=
EXTT3=
EXTT4=
EXTT5=
EXTT6=
EXTT7=
EXTT8=
EXTT9=
EXTT10=
EXTT11=
EXTT12=
EXTT13=
EXTT14=
EXTT15=
PLAYORDER=
